<svg width="1002" height="1002" viewBox="0 0 1002 1002" fill="none" xmlns="http://www.w3.org/2000/svg">
<rect width="1001.06" height="1001.06" rx="229.6" fill="#3140A7"/>
<path fill-rule="evenodd" clip-rule="evenodd" d="M779.832 587.923C779.832 742.006 654.923 866.915 500.84 866.915C346.757 866.915 221.849 742.006 221.849 587.923V191.284L500.84 502.209L540.695 457.791L537.815 461.032V543.669L675.438 697.167C694.743 665.897 705.882 629.051 705.882 589.604V441.705C705.882 398.454 671.122 363.322 628.013 362.721C627.685 362.717 627.356 362.714 627.027 362.713H626.009L779.832 191.284V587.923ZM295.798 588.018C295.797 591.724 295.707 595.408 295.903 599.066C301.69 707.126 391.145 792.965 500.648 792.965C546.792 792.965 589.376 777.722 623.639 751.997C624.006 751.721 624.374 751.445 624.739 751.167L624.046 750.397L295.798 384.562V588.018Z" fill="white"/>
<path d="M581.513 273.637C557.379 273.637 537.815 293.201 537.815 317.335V545.066H463.865V317.335C463.865 293.201 444.301 273.637 420.168 273.637L500.84 134.142L581.513 273.637Z" fill="white"/>
</svg>
